<svg xmlns="http://www.w3.org/2000/svg" xmlns:xlink="http://www.w3.org/1999/xlink" id="Layer_1" x="0" y="0" version="1.1" viewBox="0 0 128 128" xml:space="preserve" style="enable-background:new 0 0 512 512"><style type="text/css">.st0{fill:#28a746}</style><path d="M70.3,14.3c-3.4,11.1-6.2,22-6.7,34c9.4-4.5,18.3-4.3,27,0.7c9.2,5.3,17.6,11.6,23.5,20.9	c-11.2-3.3-22.3-6.2-34.6-6.7c7.9,13.8,2.2,25-5.8,35.7c-4.2,5.7-8.7,11.3-15.1,15.1c3-11.2,6.5-22.1,6.5-34.4	c-8.3,4.4-16.5,4.9-24.6,0.9c-10.6-5-19.7-12.7-26.2-22.4c11,3.3,22,6.4,33.8,6.8c-3.9-8.4-4.2-16.6-0.1-24.6	C53.2,30,60.9,21,70.3,14.3z" class="st0"/></svg>